<svg width="100%" viewBox="0 0 693 128" fill="none" xmlns="http://www.w3.org/2000/svg">
  <path d="M59.9471 71.5352L6.66116 106.139H34.344L76.5013 78.7622V117.694L94.2937 106.14V71.5352H147.58L170.797 56.4578H110.847L164.132 21.8544L136.449 21.8544L94.2937 49.2302V10.3L76.5013 21.8545V56.4578H23.2171L0 71.5352H59.9471Z" fill="currentColor"/>
  <path d="M649.839 70.1027L673.44 43.5954H690.181L666.929 68.8238L692.855 106.143H676.346L657.512 78.9384L649.839 87.1929V106.143H636.004V21.8548H649.839V70.1027Z" fill="currentColor"/>
  <path d="M628.922 43.2465C620.435 43.479 614.506 47.6644 611.483 54.8725V43.5953H597.997V106.143H611.832V73.9391C611.832 61.6156 616.715 56.9652 626.248 56.9652C627.992 56.9652 629.62 57.0814 631.945 57.4302V43.3628C630.899 43.2465 629.852 43.2465 628.922 43.2465Z" fill="currentColor"/>
  <path fill-rule="evenodd" clip-rule="evenodd" d="M575.614 52.896C571.777 46.2692 564.453 42.4326 555.734 42.4326C540.736 42.4326 528.761 54.5237 528.761 74.9854C528.761 95.5634 540.736 107.654 555.734 107.654C564.453 107.654 571.777 103.818 575.614 97.0748V106.143H589.565V43.5952H575.614V52.896ZM576.311 74.9854C576.311 90.0992 568.406 96.3772 559.686 96.3772C550.153 96.3772 543.526 88.7041 543.526 74.9854C543.526 61.383 550.153 53.7098 559.686 53.7098C568.406 53.7098 576.311 59.8716 576.311 74.9854Z" fill="currentColor"/>
  <path fill-rule="evenodd" clip-rule="evenodd" d="M478.653 124.297L464.818 126.488V43.5952H478.653V52.896C482.606 46.2692 489.814 42.4326 498.65 42.4326C513.647 42.4326 525.739 54.5237 525.739 74.9854C525.739 95.5634 513.647 107.654 498.65 107.654C489.814 107.654 482.606 103.818 478.653 97.0748V124.297ZM494.581 96.3772C504.23 96.3772 510.973 88.7041 510.973 74.9854C510.973 61.383 504.23 53.7098 494.581 53.7098C485.861 53.7098 478.072 59.8716 478.072 74.9854C478.072 90.0992 485.861 96.3772 494.581 96.3772Z" fill="currentColor"/>
  <path d="M437.938 69.0562L428.056 67.1961C422.243 66.1497 419.22 64.1733 419.22 60.3368C419.22 55.3376 425.033 53.1286 431.195 53.1286C438.054 53.1286 443.519 55.4538 445.03 61.8481H458.632C456.54 49.1758 445.844 42.2002 432.125 42.2002C417.709 42.2002 405.734 48.9433 405.734 60.918C405.734 71.9627 414.686 76.6131 424.452 78.4733L434.45 80.3334C441.426 81.6123 446.076 83.9375 446.076 88.9367C446.076 93.9358 440.147 96.8423 432.59 96.8423C424.336 96.8423 419.453 93.122 417.825 85.9139H404.106C405.618 98.2375 415.965 107.654 432.358 107.654C447.82 107.654 459.679 100.563 459.679 87.5415C459.679 75.9156 450.843 71.4977 437.938 69.0562Z" fill="currentColor"/>
  <path d="M338.444 53.71C329.027 53.71 323.795 60.2206 323.795 72.8929V106.143H309.96V24.0459L323.795 21.8549V52.5474C327.05 47.0832 333.445 42.4328 343.676 42.4328C359.138 42.4328 364.486 52.0824 364.486 67.3124V106.143H350.651V71.149C350.651 61.732 349.489 53.71 338.444 53.71Z" fill="currentColor"/>
  <path fill-rule="evenodd" clip-rule="evenodd" d="M287.045 52.8961C283.092 46.2693 276.117 42.4327 267.397 42.4327C252.632 42.4327 240.425 53.5937 240.425 73.4741C240.425 93.5871 252.632 104.632 267.397 104.632C276.117 104.632 283.092 100.911 287.045 94.1684V101.376C287.045 112.654 281 117.072 271.583 117.072C263.328 117.072 259.492 113.816 257.748 108.468H243.913C246.238 120.792 256.12 128 271.583 128C289.138 128 300.764 119.397 300.764 99.1675V43.5953H287.045V52.8961ZM287.627 73.4741C287.627 88.0066 280.07 93.4708 271.35 93.4708C262.049 93.4708 255.19 86.6115 255.19 73.4741C255.19 60.5693 262.049 53.7099 271.35 53.7099C280.07 53.7099 287.627 59.0579 287.627 73.4741Z" fill="currentColor"/>
  <path d="M376.13 89.7504C376.13 103.353 379.85 106.143 393.104 106.143H405.571L400.808 95.4472H397.173C391.011 95.4472 389.965 93.9358 389.965 87.6577V54.0587H402.521V43.5953H389.965V27.3189H376.13V43.5953H364.726L369.385 54.0587L376.13 54.0587V89.7504Z" fill="currentColor"/>
  <path d="M221.053 106.143V43.5954H234.888V106.143H221.053Z" fill="currentColor"/>
  <path d="M221.053 21.8548V35.5735H234.888V21.8548H221.053Z" fill="currentColor"/>
  <path d="M197.488 21.8548V106.143H211.323V21.8548H197.488Z" fill="currentColor"/>
</svg>
