<svg width="50" height="40" viewBox="0 0 50 40" fill="none" xmlns="http://www.w3.org/2000/svg">
<path d="M34.8575 22.3556C35.1875 22.3556 35.4647 22.2984 35.6891 22.184C35.9179 22.0652 36.0983 21.931 36.2303 21.7814C36.3667 21.6318 36.4591 21.5064 36.5075 21.4052C36.5999 21.2116 36.6527 20.9872 36.6659 20.732C36.6775 20.562 36.6852 20.4109 36.6892 20.2786C36.3978 20.3537 36.1414 20.4015 35.9355 20.44L35.9267 20.4416C35.5967 20.4988 35.3305 20.5516 35.1281 20.6C34.9257 20.6484 34.7475 20.7012 34.5935 20.7584C34.4175 20.8288 34.2745 20.9058 34.1645 20.9894C34.0589 21.0686 33.9797 21.1566 33.9269 21.2534C33.8785 21.3502 33.8543 21.458 33.8543 21.5768C33.8543 21.7396 33.8939 21.8804 33.9731 21.9992C34.0567 22.1136 34.1733 22.2016 34.3229 22.2632C34.4725 22.3248 34.6507 22.3556 34.8575 22.3556Z" fill="white"/>
<path fill-rule="evenodd" clip-rule="evenodd" d="M7.46122 14.3105C7 15.2157 7 16.4006 7 18.7706V21.2294C7 23.5994 7 24.7843 7.46122 25.6895C7.86691 26.4857 8.51427 27.1331 9.31049 27.5388C10.2157 28 11.4006 28 13.7706 28H36.5898C38.9597 28 40.1447 28 41.0499 27.5388C41.8461 27.1331 42.4935 26.4857 42.8992 25.6895C43.3604 24.7843 43.3604 23.5994 43.3604 21.2294V18.7706C43.3604 16.4006 43.3604 15.2157 42.8992 14.3105C42.4935 13.5143 41.8461 12.8669 41.0499 12.4612C40.1447 12 38.9597 12 36.5898 12H13.7706C11.4006 12 10.2157 12 9.31049 12.4612C8.51427 12.8669 7.86691 13.5143 7.46122 14.3105ZM34.4747 23.7681C33.9643 23.7681 33.5309 23.6713 33.1745 23.4777C32.8225 23.2797 32.5541 23.0178 32.3693 22.6922C32.1889 22.3622 32.0987 21.9992 32.0987 21.6032C32.0987 21.2732 32.1252 21.0831 32.2264 20.8103C32.3276 20.5375 32.4868 20.292 32.7112 20.0852C32.94 19.874 33.2549 19.7288 33.5098 19.6515C33.7647 19.5742 34.2404 19.4628 34.5435 19.4119C34.642 19.3954 34.7579 19.377 34.8906 19.3559L34.8907 19.3559L34.8908 19.3558C35.1666 19.312 35.5144 19.2566 35.9267 19.1833C36.245 19.1267 36.4899 19.0359 36.7106 18.9097C36.6828 18.5873 36.5844 18.3433 36.4151 18.1777C36.2127 17.9797 35.8739 17.8807 35.3987 17.8807C35.1347 17.8807 34.8597 17.9445 34.5737 18.0721C34.2877 18.1997 34.0875 18.4264 33.9731 18.752L32.3495 18.2371C32.5299 17.6475 32.8687 17.1679 33.3659 16.7983C33.8631 16.4287 34.5407 16.2439 35.3987 16.2439C36.0279 16.2439 36.5867 16.3407 37.0752 16.5343C37.5636 16.7279 37.9332 17.0623 38.184 17.5375C38.3248 17.8015 38.4084 18.0655 38.4348 18.3295C38.4612 18.5936 38.4744 18.8884 38.4744 19.214V23.5701H36.9036V22.695C36.6199 23.0292 36.3185 23.2813 35.9993 23.4513C35.5989 23.6625 35.0907 23.7681 34.4747 23.7681ZM28.9831 23.5698V19.359C28.9831 18.8881 28.8709 18.5229 28.6465 18.2633C28.4265 17.9993 28.1207 17.8673 27.729 17.8673C27.4782 17.8673 27.2604 17.9267 27.0756 18.0455C26.8908 18.1599 26.7456 18.3227 26.64 18.5339C26.5388 18.7407 26.4882 18.9805 26.4882 19.2534V23.5698H24.693V19.359C24.693 18.8881 24.5808 18.5229 24.3564 18.2633C24.1364 17.9993 23.8306 17.8673 23.439 17.8673C23.065 17.8673 22.7635 17.9971 22.5347 18.2567C22.3103 18.5119 22.1981 18.8441 22.1981 19.2534V23.5698H20.3897V16.4417H21.9737V17.2227C22.1805 16.968 22.4335 16.7583 22.7327 16.5935C23.1288 16.3779 23.571 16.2701 24.0594 16.2701C24.6182 16.2701 25.0758 16.3889 25.4322 16.6265C25.7299 16.8225 25.9632 17.0725 26.1321 17.3764C26.3586 17.0416 26.6511 16.7784 27.0096 16.5869C27.4012 16.3757 27.8346 16.2701 28.3099 16.2701C29.1239 16.2701 29.7377 16.5121 30.1513 16.9961C30.5693 17.4757 30.7783 18.1049 30.7783 18.8837V23.5698H28.9831ZM13.2979 23.4972C13.6499 23.6865 14.1053 23.7811 14.6641 23.7811C15.3638 23.7811 15.9424 23.6293 16.4 23.3256C16.6172 23.1829 16.8086 23.0193 16.9742 22.8348V23.5698H18.5582V16.4417H16.7498V20.0586C16.7498 20.4986 16.6992 20.855 16.598 21.1278C16.5012 21.3962 16.3758 21.6008 16.2218 21.7416C16.0678 21.878 15.9028 21.9704 15.7268 22.0188C15.5508 22.0672 15.3858 22.0914 15.2318 22.0914C14.849 22.0914 14.5519 22.0056 14.3407 21.834C14.1339 21.6624 13.9843 21.449 13.8919 21.1938C13.7995 20.9386 13.7445 20.6856 13.7269 20.4348C13.7093 20.1796 13.7005 19.9706 13.7005 19.8078V16.4417H11.8789V20.4414C11.8789 20.5602 11.8877 20.7494 11.9053 21.009C11.9229 21.2686 11.9735 21.5568 12.0571 21.8736C12.1407 22.186 12.2793 22.4874 12.4729 22.7778C12.6709 23.0682 12.9459 23.308 13.2979 23.4972Z" fill="white"/>
</svg>
