<svg width="8" height="11" viewBox="0 0 8 11" fill="none" xmlns="http://www.w3.org/2000/svg">
<path fill-rule="evenodd" clip-rule="evenodd" d="M2.51123 0C2.80184 0 3.03743 0.230853 3.03743 0.515625V1.38937H4.91565V0.515625C4.91565 0.230853 5.15124 0 5.44185 0C5.73247 0 5.96805 0.230853 5.96805 0.515625V1.42979C6.48985 1.51258 6.94149 1.72043 7.28984 2.03388C7.75178 2.44953 8 3.02335 8 3.64171C8 4.26008 7.75178 4.8339 7.28984 5.24955C7.23964 5.29472 7.18729 5.3377 7.13289 5.37843C7.18729 5.41916 7.23964 5.46214 7.28984 5.50731C7.75178 5.92296 8 6.49678 8 7.11515C8 7.73351 7.75178 8.30733 7.28984 8.72298C6.94149 9.03642 6.48985 9.24428 5.96805 9.32707V10.4844C5.96805 10.7691 5.73247 11 5.44185 11C5.15124 11 4.91565 10.7691 4.91565 10.4844V9.36749H3.03743V10.4844C3.03743 10.7691 2.80184 11 2.51123 11C2.22062 11 1.98503 10.7691 1.98503 10.4844V9.36749H0.526203C0.235589 9.36749 0 9.13663 0 8.85186C0 8.56709 0.235589 8.33624 0.526203 8.33624H1.43033V2.42062H0.526203C0.235589 2.42062 0 2.18977 0 1.905C0 1.62023 0.235589 1.38937 0.526203 1.38937H1.98503V0.515625C1.98503 0.230853 2.22062 0 2.51123 0ZM2.48273 2.42062V4.86281H5.44185C5.96587 4.86281 6.34028 4.7039 6.57803 4.48996C6.81465 4.27705 6.94759 3.98251 6.94759 3.64171C6.94759 3.30092 6.81465 3.00638 6.57803 2.79346C6.34028 2.57953 5.96587 2.42062 5.44185 2.42062H2.48273ZM5.44185 5.89406H2.48273V8.33624H5.44185C5.96587 8.33624 6.34028 8.17733 6.57803 7.9634C6.81465 7.75048 6.94759 7.45594 6.94759 7.11515C6.94759 6.77435 6.81465 6.47981 6.57803 6.2669C6.34028 6.05296 5.96587 5.89406 5.44185 5.89406Z" fill="black"/>
</svg>
