<svg width="12" height="11" viewBox="0 0 12 11" fill="none" xmlns="http://www.w3.org/2000/svg">
<path fill-rule="evenodd" clip-rule="evenodd" d="M4.51123 0C4.80184 0 5.03743 0.230853 5.03743 0.515625V1.38937H6.91565V0.515625C6.91565 0.230853 7.15124 0 7.44185 0C7.73247 0 7.96805 0.230853 7.96805 0.515625V1.42979C8.48985 1.51258 8.94149 1.72043 9.28984 2.03388C9.75178 2.44953 10 3.02335 10 3.64171C10 4.26008 9.75178 4.8339 9.28984 5.24955C9.23964 5.29472 9.18729 5.3377 9.13289 5.37843C9.18729 5.41916 9.23964 5.46214 9.28984 5.50731C9.75178 5.92296 10 6.49678 10 7.11515C10 7.73351 9.75178 8.30733 9.28984 8.72298C8.94149 9.03642 8.48985 9.24428 7.96805 9.32707V10.4844C7.96805 10.7691 7.73247 11 7.44185 11C7.15124 11 6.91565 10.7691 6.91565 10.4844V9.36749H5.03743V10.4844C5.03743 10.7691 4.80184 11 4.51123 11C4.22062 11 3.98503 10.7691 3.98503 10.4844V9.36749H2.5262C2.23559 9.36749 2 9.13663 2 8.85186C2 8.56709 2.23559 8.33624 2.5262 8.33624H3.43033V2.42062H2.5262C2.23559 2.42062 2 2.18977 2 1.905C2 1.62023 2.23559 1.38937 2.5262 1.38937H3.98503V0.515625C3.98503 0.230853 4.22062 0 4.51123 0ZM4.48273 2.42062V4.86281H7.44185C7.96587 4.86281 8.34028 4.7039 8.57803 4.48996C8.81465 4.27705 8.94759 3.98251 8.94759 3.64171C8.94759 3.30092 8.81465 3.00638 8.57803 2.79346C8.34028 2.57953 7.96587 2.42062 7.44185 2.42062H4.48273ZM7.44185 5.89406H4.48273V8.33624H7.44185C7.96587 8.33624 8.34028 8.17733 8.57803 7.9634C8.81465 7.75048 8.94759 7.45594 8.94759 7.11515C8.94759 6.77435 8.81465 6.47981 8.57803 6.2669C8.34028 6.05296 7.96587 5.89406 7.44185 5.89406Z" fill="black"/>
</svg>
